<svg width="128px" height="128px" viewBox="0 0 10.24 10.24" xmlns="http://www.w3.org/2000/svg" xmlns:xlink="http://www.w3.org/1999/xlink" aria-hidden="true" role="img" class="iconify iconify--emojione" preserveAspectRatio="xMidYMid meet"><path fill="#ffce31" d="M1.269 6.581 6.372 1.479l2.387 2.388 -5.103 5.102z"/><path d="m9.808 0.736 -0.304 -0.304C8.928 -0.144 8 -0.144 7.408 0.432l-1.04 1.04 2.4 2.4 1.04 -1.04c0.576 -0.576 0.576 -1.52 0 -2.096" fill="#ed4c5c"/><path fill="#93a2aa" d="m5.725 2.13 0.656 -0.656 2.387 2.387 -0.656 0.656z"/><path fill="#c7d3d8" d="m5.974 2.378 0.656 -0.656 1.878 1.878 -0.656 0.656z"/><path fill="#fed0ac" d="m1.264 6.576 -1.04 2.72 0.72 0.72 2.72 -1.04z"/><path d="M0.048 9.776c-0.144 0.384 0.048 0.56 0.432 0.416l1.312 -0.496 -1.232 -1.232z" fill="#333"/><path fill="#ffdf85" d="m1.262 6.588 4.458 -4.458 0.792 0.792 -4.458 4.458z"/><path fill="#ff8736" d="m2.865 8.183 4.458 -4.458 0.792 0.792 -4.458 4.458z"/></svg>